<?xml version="1.0" encoding="UTF-8"?>
<svg id="Layer_1" data-name="Layer 1" xmlns="http://www.w3.org/2000/svg" xmlns:xlink="http://www.w3.org/1999/xlink" viewBox="0 0 1440 1080">
  <defs>
    <style>
      .cls-1 {
        fill: url(#linear-gradient-2);
      }

      .cls-2 {
        fill: #68e9ca;
      }

      .cls-3 {
        fill: url(#linear-gradient);
      }
    </style>
    <linearGradient id="linear-gradient" x1="711.56" y1="940.2" x2="117" y2="345.64" gradientUnits="userSpaceOnUse">
      <stop offset="0" stop-color="#5cead9"/>
      <stop offset="1" stop-color="#dee230"/>
    </linearGradient>
    <linearGradient id="linear-gradient-2" x1="458.82" y1="869.76" x2="575.58" y2="753.01" gradientUnits="userSpaceOnUse">
      <stop offset="0" stop-color="#91e795"/>
      <stop offset="1" stop-color="#73e9bb"/>
    </linearGradient>
  </defs>
  <path class="cls-2" d="M1153.18,675.97c-52.18,0-94.51,42.3-94.51,94.51s42.33,94.51,94.51,94.51,94.55-42.3,94.55-94.51-42.33-94.51-94.55-94.51ZM1153.18,825.53c-30.39,0-55.05-24.66-55.05-55.05s24.66-55.05,55.05-55.05,55.05,24.66,55.05,55.05-24.62,55.05-55.05,55.05Z"/>
  <path class="cls-3" d="M747.58,825.53c-31.26,0-56.46-26.1-54.98-57.68,1.34-28.59,25.27-51.84,53.89-52.4,19.45-.38,36.67,9.35,46.75,24.26l32.76-22.07c-17.01-25.15-45.79-41.67-78.41-41.67-14.89,0-28.97,3.45-41.5,9.58-11.89,5.82-26.12,3.72-35.48-5.64l-37.16-37.16c-9.93-9.93-11.71-25.27-4.6-37.37,13.67-23.24,19.8-50.43,17.06-78.47-2.51-25.67-12.87-50.16-29.49-69.89-25.05-29.75-60.86-46.32-99.2-46.32-23.5,0-46.03,6.23-65.73,17.87-12,7.1-27.38,4.73-37.24-5.13l-36.86-36.86c-9.39-9.39-11.43-23.65-5.59-35.58,6.67-13.63,10.14-29.09,9.48-45.44-1.92-47.18-39.38-86.34-86.44-90.23-58.46-4.82-106.98,43.61-102.22,102.1,3.83,47.06,42.96,84.54,90.13,86.51,16.35.68,31.82-2.78,45.45-9.43,11.93-5.82,26.18-3.78,35.56,5.61l36.94,36.94c9.86,9.86,12.22,25.23,5.11,37.22-11.66,19.69-17.89,42.22-17.89,65.72s6.23,46.08,17.9,65.78c7.11,12,4.75,27.38-5.11,37.24l-36.88,36.88c-9.39,9.39-23.64,11.43-35.56,5.6-14.6-7.13-31.31-10.61-48.97-9.25-43.26,3.33-83.12,42.98-86.68,86.23-4.8,58.46,43.63,106.91,102.03,102.19,45.76-3.69,82.77-40.72,86.4-86.49,1.4-17.7-2.08-34.49-9.24-49.15-5.83-11.92-3.77-26.17,5.61-35.55l36.9-36.9c9.86-9.86,25.24-12.22,37.24-5.12,19.69,11.65,42.2,17.86,65.67,17.86s45.98-6.21,65.67-17.86c12-7.1,27.38-4.74,37.24,5.12l36.9,36.9c9.38,9.38,11.44,23.63,5.61,35.54-7.17,14.67-10.66,31.48-9.24,49.21,3.67,45.95,40.97,83.05,86.94,86.48,35.58,2.66,67.41-14.4,85.67-41.4l-32.76-22.07c-9.88,14.63-26.65,24.27-45.65,24.27ZM286.78,364.56c-30.39,0-55.05-24.66-55.05-55.05s24.66-55.05,55.05-55.05,55.05,24.66,55.05,55.05-24.62,55.05-55.05,55.05ZM286.78,825.53c-30.39,0-55.05-24.66-55.05-55.05s24.66-55.05,55.05-55.05,55.05,24.66,55.05,55.05-24.62,55.05-55.05,55.05ZM580.24,603.04c-16.83,16.83-39.22,26.13-63.04,26.13s-46.21-9.29-63.04-26.13c-16.83-16.84-26.09-39.22-26.09-63.04s9.26-46.21,26.09-63.04c16.83-16.83,39.22-26.09,63.04-26.09s46.21,9.26,63.04,26.09c16.83,16.84,26.13,39.22,26.13,63.04s-9.29,46.21-26.13,63.04Z"/>
  <path class="cls-1" d="M544.51,728c-8.32-3.81-17.57-5.91-27.32-5.91s-18.97,2.09-27.29,5.88c-23.04,10.39-39.07,33.57-39.07,60.51v73.29h39.07v-73.29c0-15.1,12.22-27.32,27.29-27.32s27.32,12.22,27.32,27.32v73.29h39.07v-73.29c0-26.91-16.03-50.1-39.07-60.48Z"/>
  <path class="cls-2" d="M969.45,861.78l-35.8-43.9-10.19,10.98v32.93h-39.07v-192.72h39.07v107.14l44.94-50.82h50.57l-57.75,62.85,59.58,73.56h-51.35Z"/>
</svg>